<?xml version="1.0" encoding="UTF-8" standalone="no"?>
<svg width="64px" height="64px" viewBox="0 0 64 64" version="1.1" xmlns="http://www.w3.org/2000/svg" xmlns:xlink="http://www.w3.org/1999/xlink" xmlns:sketch="http://www.bohemiancoding.com/sketch/ns">
    <!-- Generator: Sketch 3.5 (25232) - http://www.bohemiancoding.com/sketch -->
    <title>twitter</title>
    <desc>Created with Sketch.</desc>
    <defs></defs>
    <g id="Page-1" stroke="none" stroke-width="1" fill="none" fill-rule="evenodd" sketch:type="MSPage">
        <g id="twitter" sketch:type="MSLayerGroup">
            <g id="Layer_1" sketch:type="MSShapeGroup">
                <g id="Shape_73_" fill="#02ABF0">
                    <circle id="Oval" cx="32" cy="32" r="32"></circle>
                </g>
                <g id="Twitter_Logo" transform="translate(17.000000, 22.000000)" fill="#FFFFFF">
                    <path d="M29.004,2.607 C27.974,3.05 26.866,3.348 25.703,3.481 C26.89,2.795 27.801,1.709 28.229,0.411 C27.119,1.048 25.89,1.51 24.581,1.759 C23.533,0.68 22.04,0.006 20.387,0.006 C17.214,0.006 14.642,2.491 14.642,5.556 C14.642,5.992 14.692,6.415 14.79,6.821 C10.015,6.591 5.78,4.381 2.946,1.022 C2.451,1.842 2.168,2.795 2.168,3.812 C2.168,5.738 3.183,7.437 4.725,8.433 C3.784,8.404 2.897,8.154 2.122,7.738 C2.121,7.761 2.121,7.785 2.121,7.808 C2.121,10.497 4.101,12.74 6.73,13.25 C6.249,13.377 5.741,13.445 5.216,13.445 C4.845,13.445 4.486,13.41 4.135,13.345 C4.866,15.549 6.989,17.154 9.502,17.198 C7.535,18.687 5.058,19.575 2.366,19.575 C1.902,19.575 1.444,19.548 0.995,19.497 C3.538,21.073 6.558,21.992 9.804,21.992 C20.373,21.992 26.153,13.533 26.153,6.2 C26.153,5.96 26.148,5.719 26.136,5.481 C27.259,4.699 28.233,3.721 29.004,2.607 L29.004,2.607 Z" id="Shape"></path>
                </g>
            </g>
        </g>
    </g>
</svg>