<?xml version="1.0" encoding="UTF-8" standalone="no"?>
<svg width="64px" height="64px" viewBox="0 0 64 64" version="1.1" xmlns="http://www.w3.org/2000/svg" xmlns:xlink="http://www.w3.org/1999/xlink" xmlns:sketch="http://www.bohemiancoding.com/sketch/ns">
    <!-- Generator: Sketch 3.5 (25232) - http://www.bohemiancoding.com/sketch -->
    <title>instagram</title>
    <desc>Created with Sketch.</desc>
    <defs></defs>
    <g id="Page-1" stroke="none" stroke-width="1" fill="none" fill-rule="evenodd" sketch:type="MSPage">
        <g id="instagram" sketch:type="MSLayerGroup">
            <g id="Layer_1" sketch:type="MSShapeGroup">
                <g id="Shape_68_" fill="#3E729A">
                    <path d="M32,64 C49.673112,64 64,49.673112 64,32 C64,14.326888 49.673112,0 32,0 C14.326888,0 0,14.326888 0,32 C0,49.673112 14.326888,64 32,64 Z" id="Oval"></path>
                </g>
                <g id="Instagram_Logo" transform="translate(15.000000, 15.000000)" fill="#FFFFFF">
                    <path d="M26.818,0.995 L7.182,0.995 C3.771,0.995 0.995,3.769 0.995,7.181 L0.995,13.713 L0.995,26.818 C0.995,30.229 3.77,33.004 7.182,33.004 L26.819,33.004 C30.23,33.004 33.005,30.23 33.005,26.818 L33.005,13.713 L33.005,7.181 C33.004,3.77 30.229,0.995 26.818,0.995 L26.818,0.995 Z M17,13.013 C20.303,13.013 20.985,16.115 20.985,16.998 C20.985,19.194 19.196,20.982 17,20.982 C14.803,20.982 13.015,19.194 13.015,16.998 C13.015,16.114 13.696,13.013 17,13.013 L17,13.013 Z M29,26.998 C29,28.69 28.691,28.998 27,28.998 L7,28.998 C5.309,28.998 5,28.69 5,26.998 L5,12.998 L9,12.998 C8.588,14.014 9,15.835 9,16.998 C9,21.823 12.173,25.751 17,25.751 C21.826,25.751 25,21.823 25,16.998 C25,15.835 25.412,14.014 25,12.998 L29,12.998 L29,26.998 L29,26.998 Z M29.021,5.52 L29.021,8.966 L24.992,8.978 L24.978,5.018 L28.494,5.007 L29.021,5.005 L29.021,5.52 L29.021,5.52 Z" id="Shape"></path>
                </g>
            </g>
        </g>
    </g>
</svg>