<?xml version="1.0" encoding="UTF-8" standalone="no"?>
<svg width="64px" height="64px" viewBox="0 0 64 64" version="1.1" xmlns="http://www.w3.org/2000/svg" xmlns:xlink="http://www.w3.org/1999/xlink" xmlns:sketch="http://www.bohemiancoding.com/sketch/ns">
    <!-- Generator: Sketch 3.5 (25232) - http://www.bohemiancoding.com/sketch -->
    <title>pinterest</title>
    <desc>Created with Sketch.</desc>
    <defs></defs>
    <g id="Page-1" stroke="none" stroke-width="1" fill="none" fill-rule="evenodd" sketch:type="MSPage">
        <g id="pinterest" sketch:type="MSLayerGroup">
            <g id="Layer_1" sketch:type="MSShapeGroup">
                <g id="Shape_71_" fill="#CB2028">
                    <circle id="Oval" cx="32" cy="32" r="32"></circle>
                </g>
                <g id="Pinterest_Logo" transform="translate(20.000000, 18.000000)" fill="#FFFFFF">
                    <path d="M13.787,0.009 C4.627,0.009 0.008,6.273 0.008,11.495 C0.008,14.658 1.263,17.471 3.955,18.52 C4.397,18.691 4.793,18.526 4.921,18.06 C5.01,17.737 5.221,16.922 5.315,16.583 C5.444,16.122 5.395,15.961 5.038,15.558 C4.262,14.686 3.766,13.555 3.766,11.953 C3.766,7.307 7.412,3.146 13.258,3.146 C18.436,3.146 21.28,6.163 21.28,10.192 C21.28,15.495 18.819,19.97 15.168,19.97 C13.151,19.97 11.641,18.379 12.125,16.426 C12.704,14.098 13.827,11.584 13.827,9.902 C13.827,8.398 12.979,7.142 11.226,7.142 C9.164,7.142 7.508,9.177 7.508,11.902 C7.508,13.637 8.122,14.811 8.122,14.811 C8.122,14.811 6.013,23.338 5.643,24.832 C4.907,27.806 5.533,31.451 5.585,31.818 C5.616,32.037 5.91,32.089 6.043,31.923 C6.232,31.687 8.689,28.795 9.523,25.905 C9.759,25.087 10.879,20.849 10.879,20.849 C11.549,22.069 13.507,23.141 15.589,23.141 C21.786,23.141 25.991,17.753 25.991,10.539 C25.992,5.089 21.148,0.009 13.787,0.009 L13.787,0.009 Z" id="Shape"></path>
                </g>
            </g>
        </g>
    </g>
</svg>